<?xml version="1.0" encoding="utf-8"?>
<svg width="682.667" height="682.667" viewBox="0 0 682.667 682.667" fill="none" xmlns="http://www.w3.org/2000/svg">
  <g>
    <path d="M250.027 0.839912C257.787 -2.21342 267.267 3.42658 267.933 11.7999C269.453 26.3599 273.827 40.6666 281.4 53.2399C289.96 67.0266 303.827 77.3999 319.56 81.5066C342.12 87.5866 368.187 84.1732 386.48 68.9466C400.827 57.1332 408.707 39.2266 412.147 21.3199C413.387 15.6532 412.52 9.03991 416.747 4.47991C420.52 -8.7738e-05 427.053 -0.93342 432.36 1.10658C465.053 12.6932 497.693 24.4799 530.387 36.1066C533.813 37.2933 536.973 39.1732 539.667 41.5999C585.52 82.4266 631.44 123.187 677.32 163.987C680.307 166.573 682.08 170.267 682.667 174.147C682.667 174.147 682.667 175.293 682.667 175.293C682.053 181.627 677.093 185.947 672.893 190.147C638.147 225.187 603.48 260.333 568.733 295.373C566.133 297.48 567.24 301.107 567 303.987C567.107 403.493 567 503.013 567.053 602.52C567.08 606.893 566.293 611.667 562.853 614.747C559.707 618.013 554.987 618.64 550.68 618.627C411.12 618.613 271.56 618.613 132 618.627C127.387 618.72 122.32 617.8 119.187 614.093C115.853 610.693 115.6 605.68 115.6 601.2C115.68 500.773 115.573 400.347 115.64 299.907C115.813 298.16 115.267 296.48 113.907 295.347C77.6267 258.733 41.4 222.067 5.14667 185.44C2.33333 182.68 0.44 179.08 0 175.147C0 175.147 0 174.12 0 174.12C0.546667 169.893 2.78667 166.107 6.01333 163.36C51.3733 122.947 96.72 82.5199 142.053 42.0666C144.947 39.4266 148.4 37.4666 152.107 36.2266C184.773 24.5066 217.347 12.5199 250.027 0.839912C250.027 0.839912 250.027 0.839912 250.027 0.839912ZM162.6 60.6132C159.387 61.6266 157.173 64.2799 154.693 66.4132C114.053 102.827 73.36 139.2 32.72 175.627C60.1733 203.427 87.5867 231.253 115.067 259.027C115.093 239.32 115.093 219.613 115.067 199.907C115.027 195.693 115.587 191.093 118.64 187.92C123.173 182.627 132 182.107 137.16 186.773C140.64 189.613 141.907 194.2 141.867 198.533C141.907 329.413 141.84 460.28 141.893 591.16C274.56 591.147 407.213 591.173 539.867 591.147C539.893 460.293 539.853 329.427 539.893 198.573C539.387 191.893 543.84 184.947 550.667 183.84C558.693 181.88 566.813 188.987 566.533 197.107C566.773 217.693 566.547 238.307 566.64 258.907C594.067 231.16 621.467 203.387 648.867 175.613C607.107 138.067 565.267 100.613 523.52 63.0399C522.293 61.8799 520.787 61.1199 519.227 60.5599C492.107 50.8266 465.027 40.9333 437.893 31.2266C435.04 43.1866 431.013 55.0532 424.08 65.3066C407.827 91.4399 378.587 108.68 347.947 110.813C320.733 112.947 292.933 102.88 273.2 84.0666C258.227 70.0799 248.093 51.2666 244.08 31.2132C216.907 40.9732 189.773 50.8399 162.6 60.6132Z" fill="#FFFFFF" transform="translate(0 32.093)" />
  </g>
</svg>