<?xml version="1.0" encoding="utf-8"?>
<svg width="682.667" height="682.667" viewBox="0 0 682.667 682.667" fill="none" xmlns="http://www.w3.org/2000/svg">
  <g>
    <g transform="translate(50.427 0)">
      <path d="M289.373 0C289.373 0 292.64 0 292.64 0C317.107 0.453333 340.12 12.6133 356.627 30.24C382.16 57.24 395.133 94.16 398 130.76C401.08 167.013 393.32 204.08 375.587 235.867C415.227 259.147 454.867 282.427 494.547 305.653C498.587 307.747 501.747 311.413 502.627 315.96C528.413 418.333 554.093 520.747 579.92 623.12C580.96 627.813 583.053 633 580.747 637.667C579.253 641.053 575.907 642.973 572.68 644.44C553.573 652.907 534.48 661.413 515.4 669.933C511.64 671.64 507.12 672.627 503.32 670.507C499.893 668.973 498.133 665.48 496.827 662.173C478.627 614.213 460.413 566.253 442.16 518.307C442.16 565.533 442.147 612.76 442.173 659.987C442.093 664.84 442.573 669.773 441.507 674.547C440.24 679.213 435.68 682.08 431.08 682.667C431.08 682.667 150.933 682.667 150.933 682.667C144.72 682.307 139.427 676.973 139.707 670.653C139.48 619.76 139.693 568.853 139.6 517.947C122 564.36 104.413 610.773 86.8667 657.213C84.9734 661.987 83.6133 667.88 78.5867 670.387C74.8133 672.547 70.2667 671.56 66.52 669.853C47.12 661.187 27.6933 652.573 8.28 643.907C3.96 642.16 0.0800018 638.347 0 633.427C0.0933329 628.44 1.82667 623.693 2.94667 618.88C27.76 520.133 52.6 421.413 77.3867 322.667C78.6133 318.28 79.1467 313.507 81.7734 309.68C84.8 306.173 89.1733 304.333 93.0534 301.96C130.96 279.947 168.88 257.92 206.773 235.867C188.187 202.52 180.573 163.4 184.853 125.507C188.693 89.6533 202.467 53.76 228.36 28.04C244.467 11.8133 266.293 0.786667 289.373 0C289.373 0 289.373 0 289.373 0ZM278.4 24.5467C258.4 28.96 242.147 43.4533 231.107 60.2C214.507 85.6267 207.827 116.507 208.52 146.613C208.187 175.813 216.093 205.133 231.613 229.933C233.213 232.493 234.467 235.4 234.44 238.493C234.48 260.44 234.427 282.387 234.467 304.333C240.947 308.707 245.587 316.133 245.107 324.133C245.08 335.307 235.32 345.24 224.187 345.627C213.64 346.44 203.36 338.64 201.24 328.293C199.013 319.12 203.533 309.307 211.387 304.32C211.427 289.547 211.4 274.787 211.4 260.013C175.387 281.093 139.413 302.24 103.4 323.307C100.52 324.453 100.733 327.933 99.8933 330.4C75.1467 429.093 50.28 527.76 25.4933 626.44C39.24 632.72 53.0133 638.92 66.7733 645.16C91.3734 580.827 115.867 516.467 140.48 452.147C142.187 447.507 147.147 444.187 152.133 444.893C158.36 445.16 163.093 451.187 162.707 457.253C162.72 524.693 162.68 592.133 162.72 659.573C247.987 659.587 333.253 659.587 418.52 659.573C418.56 591.693 418.48 523.813 418.56 455.933C418.08 449.72 423.133 443.667 429.493 443.64C435.307 443.08 440.027 447.707 441.627 452.96C465.867 517.027 490.133 581.093 514.413 645.16C528.373 638.92 542.333 632.707 556.28 626.44C531.213 525.8 506.147 425.16 481.08 324.507C444.307 302.92 407.547 281.333 370.76 259.773C370.72 274.653 370.773 289.52 370.72 304.4C376.267 308.32 380.707 314.253 381.28 321.187C382.667 331.973 374.933 342.907 364.307 345.173C353.093 348.173 340.56 340.64 337.787 329.413C334.973 320.04 339.493 309.64 347.627 304.493C347.72 283.453 347.6 262.413 347.68 241.36C347.36 237.16 349.587 233.56 351.84 230.24C376.76 190.76 380.893 140.427 367.653 96.16C360.507 73.0667 347.973 50.6933 328.253 36.08C314.213 25.5333 295.707 20.52 278.4 24.5467Z" fill="#FFFFFF" />
      <path d="M56.9644 0.898884C70.5911 -1.96778 85.0711 2.20555 95.8444 10.8056C110.564 22.3522 119.751 39.5122 125.271 57.0989C131.084 77.6989 133.298 99.3922 130.631 120.699C128.458 134.472 125.844 148.379 119.764 161.046C112.391 177.206 100.791 192.566 84.1244 199.846C69.9511 206.139 52.8444 204.352 40.0177 195.779C23.1777 184.712 12.8044 166.232 6.80438 147.446C0.977722 127.512 -1.39561 106.512 0.817734 85.8189C3.23106 66.4989 7.89772 46.9922 18.5511 30.4456C27.2311 16.4856 40.4444 4.23222 56.9644 0.898884C56.9644 0.898884 56.9644 0.898884 56.9644 0.898884ZM59.7244 23.9522C48.7111 27.1789 41.3511 37.0189 35.8311 46.5255C24.2444 68.7522 21.3777 94.7389 24.3111 119.406C27.1644 139.179 33.4977 159.979 48.8444 173.699C56.3644 180.792 68.4444 182.886 77.4977 177.486C89.0311 170.659 95.9911 158.392 100.831 146.286C109.778 121.926 110.844 94.8855 104.684 69.7389C100.911 55.3922 94.8844 40.9522 83.7377 30.7522C77.5511 24.6989 68.2311 21.4056 59.7244 23.9522Z" fill="#FFFFFF" transform="translate(225.009 58.101)" />
      <path d="M82.663 0.329834C102.076 0.263153 121.503 -0.0301819 140.916 0.00979614C146.81 -0.24353 152.276 4.43649 152.85 10.3431C155.623 27.9565 163.063 46.4498 178.503 56.5832C184.396 60.6898 194.196 61.1698 195.836 69.5965C196.743 84.9298 195.956 100.357 196.236 115.743C196.103 120.903 197.063 126.89 193.396 131.13C190.743 134.503 186.25 135.41 182.183 135.33C126.17 135.317 70.1563 135.317 14.1563 135.33C10.0496 135.423 5.5296 134.503 2.86293 131.117C0.342941 128.41 0.0762787 124.557 0.0496063 121.063C0.0496063 105.93 0.0629425 90.7965 0.0362701 75.6765C-0.243713 70.9165 1.04961 65.4631 5.56963 63.0232C10.7829 60.3565 16.5563 58.6498 21.0896 54.7698C34.1296 44.1965 40.743 27.6365 43.2896 11.4365C43.8096 5.80981 48.4763 0.769806 54.2763 0.663177C63.7163 0.249847 73.1963 0.503143 82.663 0.329834C82.663 0.329834 82.663 0.329834 82.663 0.329834ZM23.1296 80.5165C23.1696 90.8499 23.1296 101.183 23.1563 111.516C73.1429 111.53 123.143 111.53 173.13 111.516C173.156 101.183 173.116 90.8499 173.156 80.5032C151.663 69.0365 136.05 47.5832 131.716 23.6098C109.33 23.6098 86.9563 23.6098 64.5696 23.6098C60.2096 47.5832 44.5963 68.9965 23.1296 80.5165Z" fill="#FFFFFF" transform="translate(192.764 492.31)" />
    </g>
  </g>
</svg>