<?xml version="1.0" encoding="utf-8"?>
<svg width="682.667" height="682.667" viewBox="0 0 682.667 682.667" fill="none" xmlns="http://www.w3.org/2000/svg">
  <g>
    <path d="M169.116 0C169.116 0 495.01 0 495.01 0C499.623 0.626667 504.263 2.64 506.943 6.61333C509.89 10.4 510.05 15.4267 510.09 20.0133C509.996 40 510.116 60 510.036 79.9867C510.05 83.56 509.756 87.2267 510.756 90.7067C561.543 261.36 612.236 432.04 663.036 602.693C664.263 606.8 664.983 611.333 663.276 615.427C661.69 619.707 657.943 622.667 654.036 624.733C628.85 637.72 601.81 646.533 574.756 654.68C504.823 674.173 432.063 681.72 359.636 682.667C359.636 682.667 304.716 682.667 304.716 682.667C232.25 681.72 159.45 674.24 89.5031 654.693C62.7298 646.627 35.9831 637.907 11.0098 625.16C6.56978 622.893 2.18311 619.573 0.70311 614.573C-1.24356 608.747 1.30311 602.813 2.88978 597.24C52.3831 430.867 101.836 264.467 151.33 98.0933C152.503 93.92 154.276 89.8 154.25 85.3867C154.183 63.5867 154.276 41.7867 154.196 19.9867C154.236 15.3867 154.41 10.3733 157.356 6.58667C160.01 2.68 164.57 0.68 169.116 0C169.116 0 169.116 0 169.116 0ZM185.463 31.1467C185.316 45.7333 185.423 60.32 185.41 74.9067C283.236 74.92 381.05 74.92 478.876 74.9067C478.836 60.3067 479.01 45.72 478.783 31.1333C381.01 31.2 283.236 31.1733 185.463 31.1467C185.463 31.1467 185.463 31.1467 185.463 31.1467ZM34.2631 601.8C73.1831 619.013 114.57 630.12 156.356 637.747C204.583 647.173 253.77 650.813 302.85 651.573C341.716 651.4 380.65 652.04 419.45 649.04C445.596 647.56 471.49 643.573 497.383 639.787C542.756 631.64 587.97 620.587 630.156 601.667C581.09 436.467 531.93 271.28 482.796 106.093C464.89 106.093 446.983 106.067 429.077 106.107C442.05 160.52 455.05 214.933 468.063 269.333C468.876 273.2 469.637 277.427 468.023 281.2C465.836 287.507 458.93 292.16 452.197 290.84C444.876 290.573 438.997 284.453 437.716 277.453C424.103 220.347 410.516 163.227 396.956 106.107C353.69 106.093 310.41 106.053 267.143 106.12C253.97 162.573 240.623 218.987 227.436 275.427C226.823 277.867 226.143 280.333 224.956 282.573C220.41 291.027 207.223 293.52 200.423 286.413C195.77 282.2 194.983 275.333 196.516 269.52C209.436 215.053 222.316 160.587 235.21 106.107C217.303 106.067 199.396 106.093 181.49 106.093C132.396 271.32 83.3431 436.56 34.2631 601.8Z" fill="#FFFFFF" transform="translate(9.19 0)" />
  </g>
</svg>