<?xml version="1.0" encoding="utf-8"?>
<svg width="318.44" height="842.726" viewBox="0 0 318.44 842.726" fill="none" xmlns="http://www.w3.org/2000/svg">
  <g>
    <path d="M73.4695 0.587679C78.6962 -0.638988 84.0562 0.467679 89.3629 0.267679C94.6829 0.427679 100.043 -0.425654 105.336 0.321012C128.403 4.53435 150.043 17.5343 163.296 37.0677C178.843 57.9343 183.096 85.761 177.536 110.868C173.216 126.121 165.843 140.934 154.35 152.068C137.03 169.388 112.723 180.161 88.0295 179.054C64.5362 179.468 42.2562 168.134 25.6695 152.054C11.2562 137.681 2.5762 118.054 0.336197 97.921C-1.43713 77.1477 3.82953 55.7477 15.5495 38.441C28.9229 18.9077 50.1095 4.81435 73.4695 0.587679C73.4695 0.587679 73.4695 0.587679 73.4695 0.587679ZM75.2829 13.241C51.7762 17.8677 30.9095 33.8543 20.6162 55.5077C14.1629 69.4677 11.0829 85.2943 13.7095 100.588C16.9495 122.348 29.8695 142.748 48.7762 154.188C64.9095 164.401 84.9762 169.188 103.816 165.041C124.07 161.134 143.043 149.374 154.11 131.774C165.67 114.668 170.59 92.6277 165.323 72.4543C161.03 52.561 148.483 34.6943 131.27 23.8543C114.843 13.3743 94.4029 9.64101 75.2829 13.241Z" fill="#FFFFFF" transform="translate(69.304 0)" />
    <path d="M72.7333 3.18666C86.8 -0.799988 101.533 0.160019 115.96 0C145.747 0.0666656 175.547 0.0133514 205.333 0.0533447C216.107 0.106674 226.96 -0.306656 237.667 1.29333C260 4.78667 280.587 16.96 295.293 34.0134C310.4 51.0134 318.173 73.7467 318.213 96.36C318.48 161.16 318.067 225.96 318.44 290.747C318.36 300.08 318.107 310.093 312.733 318.133C304.227 332 286.96 340.293 270.867 336.52C263.987 335.493 258.267 331.467 252.4 328.053C251.653 336.04 252.16 344.067 251.907 352.08C251.573 432.533 251.533 512.973 252.013 593.427C253.16 609.907 246.093 626.88 232.947 637.027C220.627 646.24 203.96 650.64 189.013 645.733C176.453 642.253 165.987 633.507 158.947 622.693C152.213 635.333 139.253 644.2 125.267 646.8C103.6 651.48 80.1333 638.587 71.1467 618.587C66.0667 608.293 66.84 596.52 66.7867 585.387C67.3467 499.853 66.32 414.32 66.9867 328.8C60.3333 331.853 53.7733 335.4 46.48 336.733C28.4933 340.48 9.06667 329.013 2.90667 311.867C0.813333 306.44 1.26667 300.533 0 294.933C0 294.933 0 125.987 0 125.987C0.866667 115.173 0.0666667 104.293 0.68 93.4667C1.13333 70.5734 10.3733 48.0267 25.9067 31.24C38.5733 17.8933 54.72 7.48 72.7333 3.18666C72.7333 3.18666 72.7333 3.18666 72.7333 3.18666ZM41.8 33.8267C25.4933 47.72 15.6533 68.24 13.4267 89.4C13.0667 156.96 13.2667 224.533 13.3067 292.107C12.6 302.507 15.84 314.467 25.3333 320.107C37.5333 328.773 56.8533 324.053 63.4133 310.547C68.24 302.107 66.6 292.053 66.8133 282.787C66.7467 223.24 66.92 163.693 66.7067 104.147C66.96 100.333 66.6133 96.3867 67.5467 92.68C71.0133 88.04 80.8267 91.0533 79.7333 97.3733C80.1333 174.253 79.7067 251.147 79.9733 328.04C79.7733 416.48 79.6933 504.933 79.6533 593.373C79.6133 601.373 80.1733 609.813 84.5733 616.76C90.3867 625.747 99.7867 632.693 110.48 634.427C121.627 636.147 133.573 632.413 141.64 624.493C149.36 617.28 153.253 606.507 153.013 596.067C153.12 506.307 152.893 416.533 153.12 326.773C151.84 321.027 158.987 317.987 163.24 320.853C165.907 323.387 165.827 327.307 165.907 330.72C165.84 419.6 165.787 508.493 165.907 597.387C165.533 607.853 170.133 618.027 177.76 625.093C190.573 637.413 212.733 638.16 225.973 626.08C235.32 618.627 239.453 606.48 239.04 594.773C239.04 437.427 239.08 280.08 239.013 122.733C239.147 117.48 238.44 112.16 239.653 106.987C238.64 102.04 239.053 96.96 239.827 92C242.533 91.4267 245.227 90.32 248.04 90.6C250.973 92.16 252.52 95.4933 252.027 98.76C251.747 161.853 251.467 224.947 252 288.04C252.293 294.907 251 302.267 254.2 308.653C257.72 317.28 266.6 322.547 275.333 324.587C290.693 326.867 306.187 312.987 305.333 297.4C305.453 228.96 305.32 160.52 305.373 92.08C304.253 74.0933 297.573 56.0934 285.613 42.4533C270.347 24.0267 246.613 12.8533 222.64 13.0933C180.853 12.9867 139.067 13.0533 97.28 13.04C77.0933 12.9067 56.5867 19.8 41.8 33.8267Z" fill="#FFFFFF" transform="translate(0 194.961)" />
  </g>
</svg>