<?xml version="1.0" encoding="utf-8"?>
<svg width="386.331" height="851.126" viewBox="0 0 386.331 851.126" fill="none" xmlns="http://www.w3.org/2000/svg">
  <g transform="translate(6 2)">
    <path d="M75.9113 1.07512C92.5113 -1.49821 109.751 0.541785 125.191 7.26178C146.765 16.1151 164.498 33.8885 173.351 55.4618C181.458 74.4484 182.565 96.3285 176.471 116.048C169.205 140.848 150.658 162.008 126.871 172.182C111.071 179.648 93.058 181.502 75.8713 179.075C51.4846 174.902 28.9646 160.662 15.2179 140.022C6.00463 125.328 -0.0754089 108.275 0.00463104 90.7818C-0.235397 68.0885 8.87129 45.7151 23.9779 28.9018C37.6313 14.3418 56.2579 4.44845 75.9113 1.07512C75.9113 1.07512 75.9113 1.07512 75.9113 1.07512ZM75.7646 14.2351C61.538 16.7418 48.3646 23.7685 37.6846 33.3818C19.5113 50.5285 9.8446 76.7018 13.9913 101.515C15.7779 115.395 21.8579 128.502 30.6713 139.302C45.5513 157.542 69.0846 167.768 92.4713 167.595C110.351 166.622 128.085 159.835 141.325 147.648C155.805 135.462 164.591 117.368 167.018 98.7551C169.471 79.2618 163.445 59.0618 151.511 43.5685C134.791 20.1951 103.818 8.60845 75.7646 14.2351Z" fill="#FFFFFF" transform="translate(96.796 0)" />
    <path d="M75.7739 20.8109C92.4806 7.06421 114.281 0.117538 135.827 0.290878C150.947 -0.375793 166.081 0.330872 181.214 0.197525C201.641 0.277527 222.081 -0.0691376 242.507 0.49086C266.027 1.14421 289.907 10.4642 305.814 28.1842C317.387 40.3709 323.814 56.4109 328.334 72.3442C343.121 137.024 358.361 201.584 373.281 266.224C377.814 284.304 367.214 304.238 350.267 311.518C338.507 316.918 323.827 316.038 313.054 308.744C318.147 333.478 323.587 358.144 328.827 382.838C330.614 389.918 329.747 398.558 323.654 403.358C319.334 407.264 313.201 406.864 307.801 407.024C295.414 407.264 283.027 407.131 270.654 407.304C270.947 470.038 270.867 532.784 270.721 595.518C271.04 608.318 267.427 621.918 257.921 630.958C250.641 637.544 241.601 642.891 231.681 643.824C225.134 643.638 218.307 644.824 212.027 642.411C201.881 639.371 193.747 632.064 187.307 623.904C185.694 622.838 185.147 625.824 184.214 626.611C177.881 636.118 166.934 641.811 155.907 643.784C150.601 643.864 145.267 644.064 139.974 643.758C125.867 640.824 112.667 631.344 107.134 617.784C103.281 609.638 103.481 600.438 103.401 591.638C103.214 530.171 103.654 468.704 102.894 407.238C88.5739 407.291 74.2539 407.264 59.9472 406.811C50.4406 406.798 42.3339 396.878 44.3606 387.531C46.2806 375.438 49.5739 363.611 51.8806 351.584C54.3872 337.584 58.1206 323.824 60.3072 309.771C54.2672 312.438 47.8939 314.678 41.2272 314.811C25.0006 315.544 8.58725 305.331 2.88059 289.984C-0.91942 281.171 -0.586087 271.224 1.72055 262.078C16.2539 199.451 30.8272 136.824 45.3606 74.1975C49.9206 53.9442 59.9872 34.5309 75.7739 20.8109C75.7739 20.8109 75.7739 20.8109 75.7739 20.8109ZM112.547 15.9709C90.4939 21.4642 72.0139 38.5042 63.6139 59.4909C58.2139 72.9976 55.6672 87.3976 52.3339 101.504C40.8139 150.104 29.7606 198.824 18.3072 247.451C16.2139 256.744 13.5606 265.997 12.8939 275.544C12.2939 286.038 19.8539 295.291 28.8406 299.784C42.7206 306.331 61.1206 298.398 65.7339 283.704C70.3739 268.864 72.4939 253.398 75.9206 238.251C86.3872 191.131 95.9339 143.811 106.201 96.6508C107.174 93.0642 107.934 88.4775 111.774 86.8509C114.814 86.4376 117.921 88.1842 119.667 90.6508C120.547 93.0375 119.494 95.6508 119.174 98.0909C106.307 158.224 93.4406 218.358 80.7339 278.518C73.3339 310.771 67.1206 343.278 59.9206 375.584C58.6406 381.624 56.2406 387.717 57.7606 393.971C70.8939 394.678 84.0539 394.384 97.2139 394.424C103.467 394.531 110.094 393.784 115.881 396.718C116.534 462.984 116.107 529.264 116.174 595.544C116.201 601.678 116.627 608.038 119.494 613.598C125.974 627.344 142.827 635.171 157.454 630.424C167.987 627.304 176.561 618.371 179.601 607.864C181.107 595.864 180.321 583.718 180.454 571.664C180.494 514.718 180.307 457.771 180.534 400.824C179.841 393.238 192.747 391.797 193.321 399.518C193.507 466.224 193.067 532.931 193.547 599.624C193.121 611.518 200.734 622.758 211.081 628.184C226.361 636.758 247.774 629.011 254.774 613.144C258.161 606.504 257.894 598.851 258.094 591.611C258.041 532.078 258.161 472.531 257.974 412.984C258.334 407.291 257.387 401.411 258.921 395.864C260.787 394.718 263.054 394.731 265.174 394.544C282.347 393.891 299.561 395.064 316.707 393.877C317.054 387.438 315.227 381.211 313.987 374.957C307.867 344.864 300.921 314.944 294.827 284.837C287.894 254.038 282.081 222.984 274.987 192.211C268.294 161.744 262.067 131.184 255.427 100.718C254.987 96.8375 252.281 91.9976 256.134 89.0509C258.894 84.7975 265.921 87.3042 266.827 91.7709C279.467 152.224 292.601 212.584 305.387 273.011C306.894 279.358 307.947 286.198 312.161 291.438C317.774 298.558 327.027 302.224 335.974 302.024C347.094 301.531 357.254 293.171 360.254 282.504C362.174 276.358 361.014 269.878 359.654 263.744C346.081 205.931 332.441 148.131 319.307 90.2242C315.667 73.9175 311.454 57.1309 301.441 43.4375C290.067 27.2242 271.427 16.7175 251.894 14.2642C243.961 13.1442 235.921 13.2375 227.921 13.1709C202.587 13.1842 177.267 13.2909 151.934 13.0909C138.774 13.1042 125.401 12.6775 112.547 15.9709Z" fill="#FFFFFF" transform="translate(0 195.171)" />
  </g>
</svg>