<?xml version="1.0" encoding="utf-8"?>
<svg width="536.16" height="539" viewBox="0 0 536.16 539" fill="none" xmlns="http://www.w3.org/2000/svg">
  <g>
    <g transform="translate(293.16 0)">
      <path d="M36.0435 1.82166C49.0493 -2.742 64.6822 1.49568 73.5082 12.1334C77.2428 16.1212 78.7084 21.4454 80.3694 26.4872C94.0047 19.1093 109.736 14.8498 125.282 17.1317C135.172 17.8923 144.367 21.967 152.845 26.9001C155.093 17.1751 161.161 8.06955 170.411 3.82098C185.881 -4.74134 206.573 1.83252 216.213 16.1212C220.404 22.456 223.324 29.6818 224.681 37.1684C226.961 50.5443 224.551 64.7569 230.207 77.4808C231.52 80.0778 233.127 82.6204 233.561 85.565C232.791 88.4988 230.858 91.9324 227.352 91.6608C213.032 92.6387 198.04 90.8567 185.468 83.5114C184.318 91.5195 183.84 99.7233 180.996 107.362C175.481 123.411 163.419 136.852 148.612 144.936C137.061 150.869 123.849 153.705 110.886 152.39C93.5706 151.26 77.1125 142.589 65.6159 129.713C54.1842 117.38 48.6259 100.332 48.3871 83.707C35.6961 90.4981 20.9751 92.8234 6.73172 91.7586C3.97427 91.7477 1.32535 90.2048 0.532805 87.4666C-0.95449 84.7718 1.03221 82.0445 2.10697 79.6323C6.85113 70.0703 7.57854 59.1827 7.77394 48.6862C7.88248 38.4506 9.97772 28.0302 15.167 19.1093C19.7918 11.1229 27.3694 4.94017 36.0435 1.82166C36.0435 1.82166 36.0435 1.82166 36.0435 1.82166ZM32.9603 15.0998C25.5455 20.3806 21.2464 29.1168 19.4117 37.853C17.0017 52.3698 19.0318 67.745 13.1151 81.5773C26.0557 81.4686 39.3437 78.0459 49.6353 69.9291C52.4363 61.8448 55.3132 53.6737 60.079 46.4914C62.5434 42.547 65.8654 39.2655 68.8726 35.745C70.8049 33.6805 70.4793 30.5402 69.9257 27.9976C68.1126 21.3368 63.4445 15.3715 57.0502 12.6007C49.3423 8.97145 39.8214 10.1558 32.9603 15.0998C32.9603 15.0998 32.9603 15.0998 32.9603 15.0998ZM172.756 14.6978C166.6 18.7399 162.833 26.0744 162.681 33.3654C166.329 38.5158 171.149 42.7644 174.482 48.1756C179.02 54.8146 180.941 62.7359 184.003 70.0595C194.164 77.9916 207.17 81.4687 219.926 81.599C218.124 75.4815 216.485 69.2771 215.963 62.8988C214.65 52.5328 215.963 41.7321 212.392 31.7355C209.569 24.2706 204.858 17.0014 197.508 13.3721C189.887 9.13445 179.856 9.55822 172.756 14.6978C172.756 14.6978 172.756 14.6978 172.756 14.6978ZM107.347 27.639C90.9324 30.4641 75.7229 40.3738 67.3963 54.945C59.5471 67.821 57.0285 83.8482 60.7197 98.4954C63.9331 112.339 72.9112 124.508 84.5055 132.56C97.8913 141.448 115.088 144.751 130.699 140.568C148.525 136.483 163.333 122.846 170.313 106.123C174.677 94.236 175.763 80.9905 172.104 68.7772C167.263 51.6961 154.148 37.3096 137.636 30.8662C128.028 27.3347 117.487 25.6179 107.347 27.639Z" fill="#FFFFFF" transform="translate(4.706 0)" />
      <path d="M75.609 2.03192C85.8681 -0.521576 96.5181 0.141266 106.994 0C122.236 0.0543213 137.479 -0.0869446 152.721 0.217331C168.364 0.173859 183.791 6.6282 195.223 17.2224C205.558 27.3168 211.561 40.8775 215.415 54.6011C224.079 88.633 233.143 122.567 241.818 156.599C243.945 164.042 243.24 172.257 239.386 179.026C233.285 190.892 216.186 196.846 204.787 189.001C207.772 201.301 210.801 213.602 213.309 226.01C214.623 232.171 210.28 239.43 203.669 239.756C195.407 240.386 187.113 239.669 178.841 239.951C178.852 271.908 179.004 303.865 178.819 335.821C178.689 342.938 179.025 350.425 175.931 357.042C171.502 366.017 162.437 372.656 152.536 374.047C147.162 373.873 141.517 374.764 136.436 372.58C130.172 370.472 125.569 365.55 121.216 360.834C116.732 367.582 109.524 372.646 101.512 374.058C97.2237 374.232 92.892 374.199 88.6365 373.786C78.6487 371.45 69.8552 364.094 66.2943 354.391C63.8408 347.382 64.3294 339.831 64.2968 332.529C64.4054 301.778 64.1774 271.028 64.362 240.277C55.8833 239.299 47.2742 240.69 38.8065 239.647C32.0648 238.93 27.9068 231.335 29.3724 225.054C31.9562 213.015 35.6581 201.225 37.786 189.077C30.0889 192.902 20.5789 192.696 13.0555 188.567C6.87834 184.481 1.6565 178.211 0.549215 170.692C-1.35062 161.304 2.11251 152.035 4.33802 143.028C12.2956 112.777 19.8732 82.4395 27.896 52.2106C31.7499 38.889 38.3288 25.9912 48.5771 16.4727C56.1438 9.44246 65.5236 4.32463 75.609 2.03192C75.609 2.03192 75.609 2.03192 75.609 2.03192ZM82.9804 11.2354C70.0507 12.7457 58.1631 19.8629 50.3032 30.1855C41.4771 41.1491 37.8403 55.0574 34.5183 68.4551C27.1904 96.6955 19.8733 124.947 12.4911 153.166C11.1232 158.892 9.12564 165.053 11.4272 170.823C13.4465 177.331 20.2316 181.178 26.7236 181.591C32.1517 181.123 37.5038 178.048 39.9464 173.039C44.7666 163.814 46.1887 153.339 48.6857 143.354C54.6348 118.395 60.6058 93.4358 66.3813 68.4334C67.3149 65.7495 67.4887 62.0986 70.2569 60.5882C72.7648 59.9037 77.1832 59.8928 77.6934 63.196C77.6825 67.1838 76.4775 71.0412 75.7718 74.9529C63.6564 126.446 50.998 177.831 39.4905 229.466C49.7604 229.585 60.0521 229.14 70.3113 229.824C71.5814 230.139 73.872 229.737 74.1977 231.509C74.6429 234.008 74.5668 236.572 74.6646 239.115C74.9685 273.147 74.8166 307.189 74.7514 341.232C74.4583 346.252 75.913 351.251 78.7248 355.401C82.7742 361.443 90.2215 364.453 97.354 364.094C105.757 363.268 113.443 357.216 115.592 348.958C116.331 343.514 116.124 338.005 116.276 332.529C116.45 309.373 116.504 286.207 116.298 263.041C116.407 252.252 115.983 241.407 116.917 230.65C119.414 230.172 122.215 228.651 124.657 230.172C126.46 231.454 126.698 233.856 126.818 235.898C127.057 271.386 126.97 306.874 126.85 342.362C126.177 353.587 135.894 364.214 147.217 364.17C154.023 363.725 161.341 360.845 164.923 354.695C168.43 349.099 168.527 342.243 168.527 335.854C168.495 310.884 168.636 285.903 168.397 260.923C168.43 250.632 167.822 240.299 169.027 230.053C180.285 228.694 191.662 229.574 202.974 229.411C202.638 225.684 201.878 222.033 201.031 218.415C189.295 167.987 177.299 117.623 165.249 67.2816C163.338 63.2612 167.691 58.4911 171.773 60.3492C175.66 61.6096 175.464 66.3906 176.626 69.6178C183.9 100.466 191.195 131.314 198.686 162.108C200.282 167.704 201.454 174.039 206.274 177.885C209.727 180.613 214.286 183.014 218.802 181.808C225.262 180.656 230.82 175.549 232.221 169.084C233.632 165.096 232.09 161.011 231.146 157.132C223.948 129.771 217.087 102.324 209.933 74.9529C207.023 64.652 205.08 54.0361 200.846 44.1698C196.178 32.8041 188.394 22.2642 177.115 16.8096C162.318 8.48628 144.926 10.9528 128.696 10.4856C113.465 10.8224 98.1575 9.59459 82.9804 11.2354Z" fill="#FFFFFF" transform="translate(0 164.843)" />
    </g>
    <g transform="translate(0 6.28)">
      <path d="M115.422 0.794283C119.813 -1.64715 125.497 1.90107 126.485 6.52351C128.54 15.3344 128.137 25.7186 121.671 32.6848C123.692 36.385 126.583 39.5534 128.463 43.3512C134.669 54.5058 136.908 67.5485 136.158 80.2006C134.843 101.121 123.138 121.249 105.249 132.339C93.7619 139.706 80.0899 143.884 66.3745 143.233C46.4425 143.146 27.3257 133.012 14.8384 117.734C5.67668 106.188 0.275242 91.7024 0.00354004 76.967C-0.159439 60.6908 5.30714 44.3278 15.773 31.7842C27.1518 18.6439 43.3452 9.03005 60.9187 7.74966C72.1237 7.10947 83.3612 7.43498 94.5553 6.59948C101.826 6.07863 108.858 3.89762 115.422 0.794283C115.422 0.794283 115.422 0.794283 115.422 0.794283ZM105.673 15.3886C91.034 18.785 75.9057 16.9295 61.0708 18.1773C49.2573 19.1756 38.3567 24.9482 29.521 32.6089C19.968 41.3547 13.6428 53.3665 11.1649 66.0186C8.99134 80.3851 12.0778 95.6847 20.468 107.653C29.2167 120.49 43.3016 129.659 58.6799 132.176C77.4598 135.442 97.6091 128.498 110.488 114.478C121.801 102.629 127.409 85.6043 125.529 69.3715C124.453 58.0758 119.812 47.225 112.498 38.5443C110.89 36.2656 108.499 34.2582 107.89 31.4696C109.325 28.7569 111.933 27.0316 114.085 24.9374C117.139 21.3458 117.215 16.3761 117.085 11.9164C113.226 12.9255 109.629 14.7702 105.673 15.3886Z" fill="#FFFFFF" transform="translate(34.296 0)" />
      <path d="M34.3212 8.48299C49.5255 -0.11084 67.436 -0.11084 84.401 0.0302277C102.083 0.106155 119.776 -0.100021 137.459 0.182114C157.184 0.344879 177.051 8.66747 190.071 23.6199C200.569 35.0241 205.351 50.6818 204.949 66.0032C204.568 101.854 205.221 137.705 204.916 173.546C204.732 188.509 188.995 200.26 174.562 197.417C170.639 196.68 167.117 194.716 163.4 193.381C163.944 241.71 163.531 290.04 163.705 338.37C163.813 346.855 162.651 355.785 157.651 362.903C151.522 371.66 140.86 377.65 129.992 376.532C119.842 377.628 110.452 371.714 104.029 364.336C103.246 363.728 102.398 361.449 101.29 362.751C97.6817 368.567 92.0086 372.962 85.553 375.208C80.4015 377.367 74.7284 376.044 69.327 376.489C57.7635 374.817 47.102 366.495 43.5047 355.253C40.7442 348.504 41.8093 341.115 41.4724 334.029C41.0811 286.937 41.5919 239.844 41.1571 192.752C37.3208 194.911 33.3974 197.363 28.8763 197.602C16.3238 199.078 3.07566 190.256 0.586849 177.701C-0.0325695 172.71 0.119532 167.654 0.0108786 162.63C0.0434482 131.878 0.0108786 101.138 0 70.3869C0.152168 63.0952 0.0434482 55.6949 1.86933 48.5768C6.4556 31.4867 18.0953 16.0569 34.3212 8.48299C34.3212 8.48299 34.3212 8.48299 34.3212 8.48299ZM27.7025 25.5948C16.6063 35.3931 10.2485 50.1502 10.4224 64.9073C10.3463 101.073 10.5202 137.239 10.4332 173.405C10.0528 177.192 12.7155 180.273 15.2151 182.769C19.2581 186.371 25.1485 188.867 30.4956 186.697C36.3317 184.472 41.9613 178.96 41.244 172.265C41.5266 136.11 41.0701 99.9446 41.494 63.7897C40.7224 60.3066 44.5479 58.4294 47.4171 58.1906C49.1777 59.1238 51.8947 60.2632 51.8186 62.6503C52.3511 99.1959 52.0903 135.763 52.1555 172.32C52.0577 229.493 52.2316 286.676 52.1121 343.86C51.8512 353.626 58.5459 363.023 68.0228 365.627C75.663 368.144 84.314 365.811 90.1392 360.429C94.6929 355.763 97.5512 349.286 97.4099 342.721C97.3229 296.062 97.3338 249.404 97.3013 202.745C96.421 198.698 102.322 194.553 105.452 198.003C108.517 199.544 107.408 203.244 107.593 206.011C107.713 251.574 107.724 297.137 107.658 342.699C107.072 352.584 113.755 362.643 123.406 365.388C128.503 367.276 134.274 367.113 139.208 364.78C147.979 361.428 153.478 351.857 152.945 342.645C153.217 297.093 152.956 251.541 153.098 205.99C153.261 157.693 152.804 109.385 153.185 61.0878C154.978 59.8074 156.771 57.2358 159.303 58.2124C160.716 59.0153 162.02 60.0244 163.368 60.9793C164.042 97.7636 163.314 134.548 163.618 171.343C162.259 182.943 177.692 191.71 187.169 185.091C191.027 181.988 194.874 177.647 194.483 172.341C194.885 136.566 194.755 100.78 194.581 64.9941C194.787 55.695 192.353 46.4067 187.853 38.2794C181.767 27.8952 171.878 20.202 160.977 15.3516C152.185 11.7926 142.643 10.447 133.198 10.5773C112.582 10.4796 91.965 10.5773 71.3593 10.523C55.7202 10.3277 39.2987 14.6897 27.7025 25.5948Z" fill="#FFFFFF" transform="translate(0 155.334)" />
    </g>
  </g>
</svg>