<?xml version="1.0" encoding="utf-8"?>
<svg width="682.667" height="682.667" viewBox="0 0 682.667 682.667" fill="none" xmlns="http://www.w3.org/2000/svg">
  <g>
    <path d="M53.4667 0.947281C58.16 -0.439384 63.12 0.133949 67.9467 0.0406132C194.653 0.0539474 321.373 0.0539474 448.093 0.0406132C452.493 -0.0127182 457.267 1.05395 460.173 4.61395C463.2 7.88062 463.44 12.5739 463.44 16.7739C463.387 30.5073 463.453 44.2406 463.387 57.9739C463.2 62.6539 465.227 66.974 466.653 71.3206C480.12 111.267 493.547 151.227 507.027 191.174C508.773 196.414 508.253 202.001 508.293 207.427C508.293 249.881 508.28 292.321 508.307 334.761C524.88 314.334 541.48 293.921 557.987 273.441C561 269.427 565.24 265.561 570.613 265.774C577.013 265.761 581.293 271.134 585.68 275.001C616.027 302.894 646.36 330.814 676.72 358.694C679.64 361.201 681.787 364.521 682.667 368.294C682.667 368.294 682.667 369.627 682.667 369.627C682.44 372.894 681.2 375.987 679.333 378.654C621.613 461.414 563.88 544.174 506.173 626.921C503.52 631.307 498.533 633.747 493.453 633.481C425.88 633.467 358.293 633.481 290.72 633.467C286.907 633.441 282.827 632.747 279.987 630.001C275.92 626.361 275.573 620.561 274.52 615.574C267.68 580.027 260.987 544.441 253.987 508.921C246.96 545.814 239.787 582.667 232.773 619.561C232.027 623.321 231.067 627.401 228.027 630.027C224.853 633.081 220.227 633.521 216.04 633.494C148.893 633.427 81.7467 633.521 14.6 633.454C7.38667 634.001 0.573333 628.561 0 621.254C0 621.254 0 196.254 0 196.254C1.18667 190.441 3.45333 184.921 5.26667 179.267C18.2667 140.427 31.44 101.641 44.3333 62.7606C45.4133 46.2006 44.2667 29.5073 44.88 12.8939C44.8933 7.61395 48.4267 2.57395 53.4667 0.947281C53.4667 0.947281 53.4667 0.947281 53.4667 0.947281ZM70.56 25.8539C70.56 34.2406 70.48 42.6273 70.6 51.014C86.44 51.0006 102.28 51.0273 118.12 51.0006C118.053 42.7739 118.267 34.5473 118.053 26.3206C118.053 26.3206 117.613 25.9206 117.613 25.9206C101.933 25.7473 86.24 25.8939 70.56 25.8539C70.56 25.8539 70.56 25.8539 70.56 25.8539ZM143.933 25.8539C143.933 34.2406 143.853 42.6273 143.973 51.014C147.053 51.014 150.12 51.014 153.2 51.014C153.213 42.6273 153.213 34.2406 153.2 25.8539C150.107 25.8406 147.027 25.8406 143.933 25.8539C143.933 25.8539 143.933 25.8539 143.933 25.8539ZM179.12 25.8939C179.133 34.2273 179.107 42.5473 179.133 50.8806C199.84 50.8939 220.533 50.8673 241.227 50.8939C241.267 42.5473 241.24 34.2006 241.24 25.8539C220.533 25.8673 199.827 25.8006 179.12 25.8939C179.12 25.8939 179.12 25.8939 179.12 25.8939ZM267.04 25.8673C267.04 34.2406 267.04 42.6273 267.053 51.0006C287.76 51.014 308.48 51.0006 329.2 51.014C329.213 42.6273 329.213 34.2406 329.2 25.8539C308.48 25.8539 287.76 25.8273 267.04 25.8673C267.04 25.8673 267.04 25.8673 267.04 25.8673ZM355 25.8673C355 34.2406 354.987 42.6273 355.013 51.0006C358.093 51.014 361.173 51.014 364.267 51.014C364.307 42.6273 364.293 34.2406 364.28 25.8539C361.187 25.8406 358.093 25.8406 355 25.8673C355 25.8673 355 25.8673 355 25.8673ZM390.053 25.8539C390.013 34.2273 390.067 42.6006 390.027 50.974C405.84 51.1073 421.653 50.894 437.467 51.0806C437.8 42.6806 437.547 34.2673 437.6 25.8539C421.76 25.8406 405.907 25.8406 390.053 25.8539C390.053 25.8539 390.053 25.8539 390.053 25.8539ZM66.9067 76.8139C54.28 114.481 41.6133 152.147 28.9733 189.814C27.6533 193.681 26.1867 197.521 25.56 201.574C53.8267 190.387 72.8267 163.867 83.3333 136.281C91.1067 117.267 95.8667 97.1339 98.6267 76.8139C88.0533 76.8006 77.48 76.7873 66.9067 76.8139C66.9067 76.8139 66.9067 76.8139 66.9067 76.8139ZM124.653 76.8806C122.227 97.6806 117.44 118.161 110.64 137.974C101.44 163.547 87.5867 188.227 66.76 206.134C54.96 216.614 40.68 223.867 25.76 228.774C25.9333 355.094 25.56 481.427 25.9467 607.747C86.9333 607.521 147.933 607.814 208.92 607.601C218.933 555.054 229.093 502.547 239.16 450.001C239.92 445.601 241.2 441.254 241.253 436.747C241.093 316.774 240.893 196.814 240.76 76.8406C202.067 76.8006 163.36 76.7339 124.653 76.8806C124.653 76.8806 124.653 76.8806 124.653 76.8806ZM267.027 76.8139C267.013 160.014 266.947 243.201 266.92 326.387C283.867 316.441 295.36 297.841 296.213 278.161C296.187 211.041 296.227 143.921 296.2 76.8139C286.48 76.8006 276.747 76.7873 267.027 76.8139C267.027 76.8139 267.027 76.8139 267.027 76.8139ZM321.907 76.894C322.053 144.854 321.867 212.827 322.013 280.801C320.853 297.641 314.587 314.161 303.92 327.294C294.533 339.414 281.373 348.201 267.133 353.654C266.907 380.001 267.133 406.361 267.027 432.707C267 435.814 266.96 438.974 267.573 442.054C278.32 497.254 288.667 552.547 299.533 607.721C360.48 607.601 421.427 607.721 482.373 607.654C482.373 481.334 482.373 355.014 482.373 228.694C463.467 222.734 446.08 212.067 432.6 197.507C412.84 176.494 400.253 149.654 392.707 122.054C388.147 107.334 385.453 92.0939 383.52 76.8273C362.973 76.8273 342.44 76.7073 321.907 76.894C321.907 76.894 321.907 76.894 321.907 76.894ZM409.547 76.8139C413.027 101.694 419.533 126.281 430.44 148.974C441.52 171.387 458.787 192.347 482.72 201.481C481.693 196.454 479.747 191.694 478.187 186.827C465.867 150.147 453.573 113.467 441.24 76.8006C430.667 76.8139 420.107 76.7873 409.547 76.8139C409.547 76.8139 409.547 76.8139 409.547 76.8139ZM562.84 307.881C590.053 333.041 617.533 357.894 644.88 382.907C647.493 379.174 650.107 375.427 652.693 371.681C625.72 346.841 598.747 322.001 571.747 297.201C568.773 300.747 565.893 304.387 562.84 307.881C562.84 307.881 562.84 307.881 562.84 307.881ZM508.253 375.321C508.04 443.334 508.227 511.374 508.16 579.387C548.907 521.054 589.573 462.667 630.28 404.321C602.493 378.854 574.693 353.414 546.88 327.987C534.08 343.814 520.573 359.201 508.253 375.321Z" fill="#FFFFFF" transform="translate(0 24.573)" />
  </g>
</svg>