<?xml version="1.0" encoding="utf-8"?>
<svg width="682.667" height="682.667" viewBox="0 0 682.667 682.667" fill="none" xmlns="http://www.w3.org/2000/svg">
  <g>
    <path d="M61.0269 0C61.0269 0 486.4 0 486.4 0C493.187 0.56 499.094 6.33333 498.96 13.2933C499.414 30.9867 498.614 48.7333 499.334 66.4C514.787 113.16 530.707 159.773 546.334 206.48C547.187 209.147 547.427 211.96 547.454 214.76C547.44 363.613 547.427 512.467 547.454 661.32C547.307 666.68 548.24 672.813 544.667 677.333C542.347 680.587 538.427 682.12 534.587 682.667C534.587 682.667 310.374 682.667 310.374 682.667C304.427 682.067 299.147 677.627 298.147 671.64C289.867 629.56 282.04 587.387 273.747 545.307C265.574 587.013 257.907 628.827 249.854 670.56C249.067 676.987 243.694 682.16 237.227 682.667C237.227 682.667 12.1336 682.667 12.1336 682.667C8.61358 681.867 5.01357 680.413 2.84025 677.387C-0.746422 672.907 0.146912 666.773 0.000244141 661.44C0.0535812 512.093 -0.013092 362.747 0.0402451 213.413C0.0269089 208.467 2.02691 203.893 3.54691 199.293C17.5736 157.667 31.5736 116.027 45.6003 74.4C46.8536 70.5733 48.6269 66.7867 48.4669 62.68C48.4003 47.5467 48.4802 32.4133 48.4136 17.28C48.5069 13.5467 48.4003 9.45333 50.5869 6.22667C52.7736 2.53333 56.9202 0.613333 61.0269 0C61.0269 0 61.0269 0 61.0269 0ZM74.8269 26.3867C74.8136 35.92 74.8136 45.4533 74.8403 54.9867C92.4003 55 109.974 55 127.547 54.9867C127.574 45.4533 127.574 35.92 127.56 26.3867C109.974 26.3733 92.4003 26.3733 74.8269 26.3867C74.8269 26.3867 74.8269 26.3867 74.8269 26.3867ZM153.947 26.3867C153.934 35.92 153.947 45.44 153.947 54.9733C157.787 55.0267 161.64 55.0667 165.48 54.8667C165.4 45.3733 165.467 35.8933 165.44 26.4C161.614 26.3733 157.774 26.3733 153.947 26.3867C153.947 26.3867 153.947 26.3867 153.947 26.3867ZM191.96 26.3867C191.934 35.76 191.947 45.12 191.947 54.4933C214.8 54.5067 237.654 54.5067 260.507 54.4933C260.534 45.12 260.534 35.76 260.507 26.3867C237.654 26.3733 214.8 26.3733 191.96 26.3867C191.96 26.3867 191.96 26.3867 191.96 26.3867ZM287.08 26.3867C287.014 35.92 286.974 45.4533 286.96 54.9867C309.854 55 332.747 55 355.64 54.9867C355.654 45.4533 355.654 35.92 355.64 26.3867C332.787 26.3733 309.934 26.3733 287.08 26.3867C287.08 26.3867 287.08 26.3867 287.08 26.3867ZM382.014 26.4267C381.987 35.9467 381.934 45.4667 381.907 54.9867C385.774 55.0133 389.654 55.0133 393.534 54.96C393.52 45.44 393.534 35.9067 393.52 26.3867C389.68 26.36 385.854 26.36 382.014 26.4267C382.014 26.4267 382.014 26.4267 382.014 26.4267ZM419.92 26.3867C419.894 35.92 419.894 45.4533 419.907 54.9867C437.48 55 455.067 55 472.64 54.9867C472.654 45.4533 472.654 35.92 472.627 26.3867C455.054 26.3733 437.494 26.3733 419.92 26.3867C419.92 26.3867 419.92 26.3867 419.92 26.3867ZM71.1069 81.2667C57.0269 123.107 42.9736 164.947 28.9069 206.787C27.7202 210.4 26.0536 214 26.3602 217.907C57.3069 205.72 78.4536 177 89.9469 146.747C98.6003 125.893 103.574 103.72 106.76 81.4267C94.8803 81.0533 82.9869 81.3333 71.1069 81.2667C71.1069 81.2667 71.1069 81.2667 71.1069 81.2667ZM104.347 178.64C95.5603 194.493 84.6403 209.373 70.7869 221.16C58.0269 232.44 42.6003 240.347 26.4269 245.48C26.3736 382.413 26.4002 519.347 26.4136 656.28C92.7603 656.293 159.107 656.32 225.454 656.267C237 595.947 248.547 535.64 260.12 475.333C260.76 471.573 260.494 467.747 260.52 463.973C260.507 336.4 260.534 208.84 260.507 81.2667C218.174 81.2133 175.827 81.3067 133.48 81.2133C128.92 114.893 120.654 148.587 104.347 178.64C104.347 178.64 104.347 178.64 104.347 178.64ZM287.08 81.3733C287.067 171.6 287.067 261.84 287.067 352.067C308.48 341.76 319.814 317.64 319.987 294.653C320.08 223.573 319.974 152.48 320.04 81.4C309.054 81.3467 298.067 81.3867 287.08 81.3733C287.08 81.3733 287.08 81.3733 287.08 81.3733ZM346.214 81.4133C346.427 155.16 346.094 228.893 346.387 302.64C344.52 330.347 329.12 356.947 305.414 371.613C299.84 375.88 292.96 377.707 286.867 381.053C287.04 410.92 286.907 440.8 286.934 470.68C286.934 474.773 288.067 478.747 288.787 482.76C299.854 540.6 310.947 598.427 322.014 656.253C388.36 656.32 454.707 656.28 521.054 656.28C521 519.307 521.214 382.347 520.947 245.387C490.707 236.64 465.32 215.2 449.027 188.587C428.667 156.36 419.094 118.627 413.987 81.2133C391.4 81.4133 368.8 81.0133 346.214 81.4133C346.214 81.4133 346.214 81.4133 346.214 81.4133ZM440.707 81.44C445.027 111.627 453.014 141.72 467.88 168.52C479.84 190.027 497.894 208.933 521.134 218.04C521.4 213.787 519.467 209.907 518.24 205.96C504.267 164.44 490.334 122.907 476.347 81.3867C464.467 81.4 452.587 81.3067 440.707 81.44Z" fill="#FFFFFF" transform="translate(67.6 0)" />
  </g>
</svg>