<?xml version="1.0" encoding="utf-8"?>
<svg width="682.667" height="682.667" viewBox="0 0 682.667 682.667" fill="none" xmlns="http://www.w3.org/2000/svg">
  <g>
    <path d="M90.2767 0C90.2767 0 168.583 0 168.583 0C174.303 0.28 180.01 3.94667 181.623 9.6C183.13 13.1733 182.09 17.16 181.37 20.8C176.97 38.0667 174.943 55.9467 175.49 73.76C202.503 90.8133 233.903 101.773 266.023 102.4C298.623 103.373 330.81 92.24 357.357 73.6C357.477 55.4267 355.357 37.2 350.543 19.6533C348.517 13.4667 350.863 5.82667 356.757 2.69333C361.583 -0.706667 367.93 1.62667 373.29 0C373.29 0 430.943 0 430.943 0C430.943 0 436.543 0.666667 436.543 0.666667C445.663 -1.64 455.77 5.06667 455.797 14.64C454.903 43.5467 454.49 72.5333 456.85 101.387C459.21 142.44 466.037 183.44 479.45 222.387C487.53 244.467 497.73 266 512.063 284.733C517.45 292.947 525.517 299.027 530.743 307.347C531.757 310.053 532.183 313.013 532.143 315.92C532.077 428.213 532.237 540.507 532.077 652.8C532.117 668.467 518.49 682.253 502.877 682.667C502.877 682.667 29.73 682.667 29.73 682.667C13.5567 682.507 -0.43 667.947 0.0233307 651.8C-0.00333405 538.533 -0.0166702 425.28 0.0366669 312.027C-0.230003 306.853 3.21 302.68 6.65 299.24C32.21 273.107 47.8633 239.027 58.21 204.373C72.49 155.4 76.7433 104.12 77.09 53.3067C77.49 39.96 76.3167 26.6 76.5033 13.2533C76.77 6.01333 83.1833 0.28 90.2767 0C90.2767 0 90.2767 0 90.2767 0ZM104.783 27.9067C105.783 70.28 103.877 112.773 97.7033 154.733C93.7567 179.293 88.33 203.667 80.21 227.2C69.0767 260.72 51.9167 292.533 27.7967 318.52C27.7167 428.347 27.7833 538.187 27.7567 648.013C27.8367 649.893 27.49 651.88 28.21 653.693C28.65 653.933 29.5567 654.4 30.01 654.627C186.957 654.72 343.917 654.64 500.877 654.667C503.157 655.093 504.53 652.733 504.143 650.747C504.143 540.053 504.263 429.373 504.237 318.68C499.597 312.44 493.77 307.067 489.37 300.613C462.277 264.453 447.463 220.747 438.343 176.907C428.637 127.92 426.17 77.76 427.237 27.9067C411.943 27.8533 396.65 27.8667 381.37 27.9067C388.29 67.16 386.237 108.4 372.263 145.933C361.157 176.093 342.197 204.533 314.57 221.813C295.583 233.773 272.103 239 249.97 234.56C234.65 231.867 220.45 224.64 208.13 215.307C181.17 194.12 163.81 162.76 154.743 130.107C145.277 96.96 144.743 61.7333 150.65 27.9067C135.357 27.8667 120.063 27.8667 104.783 27.9067C104.783 27.9067 104.783 27.9067 104.783 27.9067ZM178.103 107.333C182.543 129.773 190.437 151.693 203.463 170.613C215.223 187.52 232.05 202.027 252.53 206.667C271.343 211.107 291.557 205.507 306.65 193.773C328.05 177.733 340.85 153.013 348.93 128.067C350.53 121.613 352.197 115.2 353.757 108.747C327.503 123.187 297.41 130.653 267.437 129.96C236.45 129.187 205.783 121.213 178.103 107.333Z" fill="#FFFFFF" transform="translate(75.283 0)" />
  </g>
</svg>