<?xml version="1.0" encoding="utf-8"?>
<svg width="682.667" height="682.667" viewBox="0 0 682.667 682.667" fill="none" xmlns="http://www.w3.org/2000/svg">
  <g>
    <path d="M91.9152 6.20109C94.5552 2.14776 99.4352 -0.505575 104.315 0.0810921C109.689 0.561092 113.715 4.52109 117.835 7.57443C156.435 37.0278 195.035 66.4944 233.662 95.9211C273.889 65.4544 314.115 35.0144 354.302 4.49443C358.409 1.14776 364.235 -0.745575 369.302 1.54776C374.009 3.32109 376.475 8.02776 378.569 12.2811C397.995 48.6811 409.502 89.3077 411.942 130.521C415.075 178.908 405.342 227.881 384.835 271.761C395.929 289.068 405.462 307.348 413.849 326.094C435.355 375.628 448.929 428.308 457.275 481.561C466.089 539.188 468.782 597.654 466.675 655.881C466.369 661.614 466.902 667.454 465.569 673.081C464.062 678.388 458.955 681.908 453.622 682.521C453.622 682.521 14.0752 682.521 14.0752 682.521C8.63519 682.028 3.3952 678.454 1.88852 673.068C0.621857 667.881 1.04852 662.481 0.781853 657.201C-2.35148 574.894 3.63519 491.761 24.1552 411.801C36.9819 362.748 55.0752 314.574 82.6085 271.774C69.1952 242.774 59.9952 211.734 56.6219 179.934C49.7419 120.228 62.3419 58.4944 91.9152 6.20109C91.9152 6.20109 91.9152 6.20109 91.9152 6.20109ZM242.489 122.161C237.515 126.361 229.822 126.321 224.862 122.094C185.809 92.5744 146.835 62.9611 107.782 33.4278C104.715 40.3744 101.462 47.2544 98.9019 54.4144C73.5552 120.294 76.2752 196.401 106.449 260.228C191.249 260.094 276.062 260.068 360.862 260.241C378.929 222.054 387.302 179.388 385.542 137.201C384.142 101.308 375.169 65.8011 359.755 33.3744C320.635 62.9211 281.622 92.6144 242.489 122.161C242.489 122.161 242.489 122.161 242.489 122.161ZM104.795 286.548C87.6085 313.908 74.4352 343.601 63.9019 374.094C33.1952 464.214 24.2885 560.414 27.1685 655.161C58.6752 655.201 90.1819 655.188 121.689 655.174C121.982 622.521 121.155 589.841 122.595 557.214C123.329 539.414 123.449 521.601 124.795 503.828C129.262 430.788 136.915 357.534 154.942 286.454C138.222 286.494 121.502 286.308 104.795 286.548C104.795 286.548 104.795 286.548 104.795 286.548ZM166.689 361.801C151.342 458.748 147.275 557.134 148.409 655.174C205.249 655.188 262.075 655.188 318.902 655.174C319.635 612.268 318.835 569.361 316.875 526.495C316.249 502.881 313.795 479.361 312.275 455.801C306.795 398.854 299.462 341.814 284.595 286.468C250.635 286.414 216.675 286.454 182.729 286.441C175.849 311.214 171.049 336.481 166.689 361.801C166.689 361.801 166.689 361.801 166.689 361.801ZM312.395 286.454C322.462 324.988 328.729 364.374 333.809 403.828C339.675 453.854 343.382 504.148 344.635 554.508C346.182 588.041 345.329 621.614 345.595 655.174C377.129 655.188 408.662 655.188 440.209 655.174C442.515 573.961 436.395 491.948 415.169 413.294C403.275 369.028 386.635 325.734 362.502 286.641C345.809 286.188 329.089 286.561 312.395 286.454Z" fill="#FFFFFF" transform="translate(107.672 0.146)" />
  </g>
</svg>