<svg xmlns="http://www.w3.org/2000/svg" xmlns:xlink="http://www.w3.org/1999/xlink" xmlns:xodm="http://www.corel.com/coreldraw/odm/2003" width="1150.178" height="225.9" version="1.1" xml:space="preserve" style="shape-rendering:geometricPrecision;text-rendering:geometricPrecision;image-rendering:optimizeQuality;fill-rule:evenodd;clip-rule:evenodd" viewBox="0 0 14318.78 2812.27"><defs><style type="text/css">.fil0{fill:#262425;fill-rule:nonzero}</style></defs><g id="Capa_x0020_1"><metadata id="CorelCorpID_0Corel-Layer"/><g id="_1685831947184"><path d="M7504.23 999.42l0 1171.84c0,78.18 62.99,143.54 141.3,142.54 36.85,-0.5 70.34,-15.19 94.99,-38.96 0.62,-0.62 1.25,-1.25 1.87,-1.87 8.34,-7.59 15.69,-16.44 22.03,-26.27l742.47 -1149.68 0 1082.83c0,77.06 62.49,139.56 139.56,139.56l-0 -0c77.06,0 139.56,-62.49 139.56,-139.56l0 -1555.77c0,-45.81 -22.53,-90.63 -63.86,-117.39 -64.73,-41.71 -151.13,-23.15 -192.84,41.46l-7.84 12.2 -738.24 1142.96 0 -713.21c0,0 0,-486.01 0,-486.01l0 -364.52c0,-77.06 -62.49,-139.56 -139.56,-139.56l0 0c-77.06,0 -139.56,62.49 -139.56,139.56l0 373.85c0,0 0,486.01 0,486.01l0.13 0z" class="fil0"/><path d="M7156.15 1812.85l0 -1171.84c0,-78.18 -62.99,-143.54 -141.3,-142.54 -36.85,0.5 -70.34,15.19 -94.99,38.96 -0.62,0.62 -1.25,1.25 -1.87,1.87 -8.34,7.59 -15.69,16.44 -22.03,26.27l-742.47 1149.68 0 -1082.95c0,-77.06 -62.49,-139.56 -139.56,-139.56l0 0c-77.06,0 -139.56,62.49 -139.56,139.56l0 1555.77c0,45.81 22.53,90.63 63.86,117.39 64.73,41.71 151.13,23.15 192.84,-41.46l7.84 -12.2 738.23 -1142.96 0 713.21c0,0 0,486.01 0,486.01l0 364.63c0,77.06 62.49,139.56 139.56,139.56l0 0c77.06,0 139.56,-62.49 139.56,-139.56l0 -373.85c0,0 0,-486.01 0,-486.01l-0.13 -0z" class="fil0"/><g><path d="M13179.8 489.5l1000.29 0c76.58,0 138.69,62.1 138.69,138.69l-0 0c0,76.58 -62.1,138.69 -138.68,138.69l-1000.29 -0c-76.58,0 -138.69,-62.1 -138.69,-138.68l0 0c0,-76.58 62.1,-138.69 138.69,-138.69z" class="fil0"/><path d="M13179.8 2042.04l1000.29 0c76.58,-0 138.69,62.1 138.69,138.68l-0 0c0,76.58 -62.1,138.68 -138.68,138.68l-1000.29 0c-76.58,0 -138.69,-62.1 -138.69,-138.69l0 0c0,-76.59 62.1,-138.69 138.69,-138.69z" class="fil0"/><path d="M13179.8 1265.71l1000.29 0c76.58,0 138.69,62.1 138.69,138.69l-0 0c0,76.58 -62.1,138.68 -138.68,138.68l-1000.29 0c-76.58,0 -138.69,-62.1 -138.69,-138.68l0 0c0,-76.58 62.1,-138.69 138.69,-138.69z" class="fil0"/></g><path d="M9772.46 491.74l0 0c-352.56,0 -638.52,285.83 -638.52,638.52l0 550.75c0,352.56 285.83,638.52 638.52,638.52l0 -0c352.56,0 638.52,-285.83 638.52,-638.52l0 -550.75c0,-352.56 -285.83,-638.52 -638.52,-638.52l0 0zm361.03 1193.25c0,199.43 -161.59,361.02 -361.02,361.02l-0 0c-199.43,0 -361.02,-161.59 -361.02,-361.02l0 -558.97c0,-199.43 161.59,-361.02 361.02,-361.02l0 0c199.43,0 361.02,161.59 361.02,361.02l0 558.97 0 0z" class="fil0"/><path d="M10918.66 488.88l0 0c76.58,0 138.69,62.1 138.69,138.69l0 1553.16c0,76.58 -62.1,138.68 -138.69,138.68l0 0c-76.58,0 -138.69,-62.1 -138.69,-138.69l0 -1553.15c-0,-76.58 62.1,-138.69 138.68,-138.69z" class="fil0"/><path d="M11688.39 1016.35l0 0c0,137.69 111.55,249.23 249.11,249.23l224.46 0c290.81,0 526.47,235.91 526.47,526.85l0 -0c0,291.06 -235.66,526.85 -526.47,526.85l-612.25 0c-76.56,0 -138.69,-62.12 -138.69,-138.81l0 0c0,-76.69 62.12,-138.81 138.69,-138.81l612.25 0c137.56,0 249.11,-111.55 249.11,-249.23l0 0c0,-137.69 -111.55,-249.23 -249.11,-249.23l-224.46 0c-290.81,0 -526.47,-235.91 -526.47,-526.85l0 0c0,-291.06 235.66,-526.85 526.47,-526.85l612.25 0c76.56,0 138.69,62.12 138.69,138.81l0 0c0,76.69 -62.12,138.81 -138.69,138.81l-612.25 0c-137.56,0 -249.11,111.55 -249.11,249.23z" class="fil0"/><path d="M5489.46 534.94c-25.15,-25.15 -59.76,-40.58 -98.1,-40.58 -41.08,0 -77.93,17.8 -103.33,46.19 -5.6,5.98 -10.7,12.45 -15.19,19.55l-7.84 12.2 -883.64 1401.9 -355.55 -567.93 452.78 -723.3c51.66,-82.66 -7.72,-189.97 -105.19,-189.97l-996.31 -0c-61.13,0 -121.5,38.59 -138.94,103.7 0,0.25 -0.12,0.5 -0.25,0.75 -2.49,10.46 -3.86,21.41 -3.86,32.49l-0.5 776.21 -0.37 770.6c0,13.57 1.62,26.27 4.73,38.09 0,0.25 0.12,0.5 0.25,0.75 17.43,65.11 77.81,103.7 138.94,103.7l996.31 -0c2.74,0 5.48,0 8.22,-0.25 0.12,0 0.37,0 0.62,0 2.74,0.12 5.48,0.25 8.22,0.25 37.47,0 71.46,-14.82 96.48,-38.84 0.75,-0.5 1.37,-1.12 1.87,-1.87 8.22,-7.59 15.69,-16.31 22.03,-26.14l338.87 -538.42 402.98 -0 0 460.99c0,76.56 62.12,138.69 138.69,138.69 76.56,0 138.69,-62.12 138.69,-138.69l-0 -1541.95c0,-38.34 -15.56,-72.95 -40.58,-98.1zm-1978.54 1524.15l0 -1305.92 618.85 0 -424.39 652.96 424.39 652.96 -618.85 0zm1501.37 -603.04l240.52 -382.07 0 382.07 -240.52 0z" class="fil0"/><path d="M2418.75 1407l453.4 -724.17c51.79,-82.66 -7.72,-189.97 -105.19,-189.97l-1002.28 0c-75.69,0 -137.07,61.37 -137.07,137.07l-0.87 1546.81c0,143.04 187.11,196.82 263.05,75.57l370.12 -591.33 386.92 591.46c6.35,9.83 13.69,18.55 22.03,26.14 0.62,0.75 1.25,1.37 1.87,1.87 25.02,24.02 59.01,38.84 96.48,38.84 2.37,0 4.86,0 7.22,-0.12 95.11,-4.86 148.14,-112.92 97.35,-193.59l-452.78 -718.69 -0.25 0.12zm-514.28 -653.83l618.72 0 -618.72 952.11 0 -952.11z" class="fil0"/><path d="M1272.8 636.53l0 1046.48c0,351.44 -284.96,636.4 -636.4,636.4l0 -0c-351.44,0 -636.4,-284.96 -636.4,-636.4l0 -1046.47c0,-75.44 61.25,-136.69 136.69,-136.69l0 -0c75.44,0 136.69,61.25 136.69,136.69l0 1046.48c0,200.55 162.59,363.14 363.14,363.14l0 0c200.55,0 363.14,-162.59 363.14,-363.14l0 -1046.47c0,-75.44 61.25,-136.69 136.69,-136.69l0 -0c75.44,0 136.69,61.25 136.69,136.69l-0.24 0z" class="fil0"/></g></g></svg>